# xmcd
# 
# Track frame offsets:
#     182
#     23780
#     43837
#     58350
#     76525
#     98447
#     120077
#     141140
#     167125
#     191162
#     208715
#     226942
# 
# Disc length: 3334
# 
# Revision: 1
# Processed by: cddbd v1.5.2PL0 Copyright (c) Steve Scherf et al.
# Submitted via: BonkEnc v1.0.8
# 
DISCID=960d040c
DTITLE=Deborah Henson-Conant - Alter Ego
DYEAR=1997
DGENRE=Vocal
TTITLE0=996
TTITLE1=Bring it all Down
TTITLE2=Dance the Way you Dance
TTITLE3=Beck's Blues
TTITLE4=Wild Mountain Thyme/Summertime
TTITLE5=Congratulations, You Made it this Far (the birthday song)
TTITLE6=Belinda
TTITLE7=Siana's Dream: The Music Box
TTITLE8=Nobody Half As Strong
TTITLE9=Cindy, Cindy
TTITLE10=There's a Boat
TTITLE11=Ireene Goodnight
EXTD=YEAR: 1997
EXTT0=
EXTT1=
EXTT2=
EXTT3=
EXTT4=
EXTT5=
EXTT6=
EXTT7=
EXTT8=
EXTT9=
EXTT10=
EXTT11=
PLAYORDER=
